<?xml version="1.0" encoding="UTF-8"?><svg id="eb1b09ad-1fe0-40ca-8096-34696e14e30a" xmlns="http://www.w3.org/2000/svg" viewBox="0 0 1010.89 727.28"><defs><style>.cls-1{fill:#fff;}.cls-2{fill:#b9c1a6;}.cls-3{opacity:.2;}.cls-3,.cls-4{fill:#898e59;}.cls-5{fill:#e6e6e6;}.cls-6{fill:#ffb9b9;}.cls-7{fill:#ff4b5b;}.cls-8{fill:#d1c28d;}.cls-9{fill:#373e3d;}.cls-10{isolation:isolate;opacity:.1;}.cls-11{fill:#242627;}.cls-12{fill:#f2f2f2;}.cls-13{fill:#fafaf9;}</style></defs><path class="cls-11" d="M1010.89,727.28c-52.09-7.63-102.18-14.21-150.28-19.73l19.02-30.78c-6.41-1.89-34.58,15.65-34.58,15.65l24.97-89.48c-32.25,3.11-48.66,94.51-48.66,94.51l-36.02-31.1,17.44,34.85c-147.21-15.2-274.35-21.16-381.29-21.85l16.28-26.34c-6.41-1.89-34.58,15.65-34.58,15.65l24.97-89.48c-32.25,3.11-48.66,94.51-48.66,94.51l-36.02-31.1,18.47,36.92c-89.65,1.09-162.76,5.87-219.19,11.45,16.47-41.08,72.39-79.96,72.39-79.96-42.71,10.44-65.11,28.15-76.82,44.71-.89-50.82,5.13-145,49.86-249.09,0,0-88.3,160.41-77.05,268.41l1.34,19.17c-74.84,8.62-112.46,17.78-112.46,17.78l1010.89,15.28Z"/><path class="cls-9" d="M537.53,29.13V677.33c-.02,16.08-13.05,29.1-29.13,29.11H245.25c-16.06,.03-29.1-12.97-29.13-29.03,0-.03,0-.05,0-.08V29.13C216.12,13.04,229.15,0,245.24,0h39.39V5.05c0,13.25,10.73,23.99,23.98,23.99h133.84c5.12,.01,10.11-1.63,14.22-4.68,.83-.6,1.62-1.27,2.36-1.98,4.73-4.52,7.41-10.78,7.4-17.33V0h41.97c16.08,0,29.13,13.03,29.13,29.11v.02Z"/><circle class="cls-7" cx="289.43" cy="108" r="7"/><path class="cls-2" d="M459.03,22.38c-.74,.71-1.53,1.38-2.36,1.98,17.33,30.5,46.67,52.34,80.86,60.19v-3.12c-33.27-7.85-61.74-29.26-78.5-59.05Z"/><path class="cls-2" d="M399.22,29.04h-3.28c23.7,60.21,77.63,103.27,141.59,113.05v-3.1c-62.28-9.67-114.84-51.46-138.31-109.95Z"/><path class="cls-2" d="M338.8,29.04h-3.16c26.43,91.74,106.18,160.03,201.89,171.12v-3.05c-94.05-11.04-172.43-78.03-198.73-168.07Z"/><polygon class="cls-12" points="266.43 159.82 264.6 159.82 264.6 158 264.25 158 264.25 159.82 262.43 159.82 262.43 160.18 264.25 160.18 264.25 162 264.6 162 264.6 160.18 266.43 160.18 266.43 159.82"/><polygon class="cls-12" points="389.43 68.82 387.6 68.82 387.6 67 387.25 67 387.25 68.82 385.43 68.82 385.43 69.18 387.25 69.18 387.25 71 387.6 71 387.6 69.18 389.43 69.18 389.43 68.82"/><polygon class="cls-12" points="284.43 231.82 282.6 231.82 282.6 230 282.25 230 282.25 231.82 280.43 231.82 280.43 232.18 282.25 232.18 282.25 234 282.6 234 282.6 232.18 284.43 232.18 284.43 231.82"/><polygon class="cls-12" points="368.43 178.82 366.6 178.82 366.6 177 366.25 177 366.25 178.82 364.43 178.82 364.43 179.18 366.25 179.18 366.25 181 366.6 181 366.6 179.18 368.43 179.18 368.43 178.82"/><polygon class="cls-12" points="488.43 211.82 486.6 211.82 486.6 210 486.25 210 486.25 211.82 484.43 211.82 484.43 212.18 486.25 212.18 486.25 214 486.6 214 486.6 212.18 488.43 212.18 488.43 211.82"/><circle class="cls-8" cx="467.43" cy="125" r="4"/><path class="cls-5" d="M324.13,218.8l-2.27,.35c.71,4.54,1.27,9.18,1.68,13.77l2.29-.2c-.41-4.65-.98-9.33-1.7-13.92Z"/><path class="cls-5" d="M317.92,191.46l-2.2,.67c1.33,4.4,2.52,8.91,3.53,13.4l2.25-.51c-1.03-4.54-2.24-9.1-3.58-13.56Z"/><path class="cls-5" d="M308.01,165.24l-2.09,.96c1.92,4.19,3.72,8.49,5.35,12.79l2.15-.81c-1.65-4.35-3.46-8.71-5.41-12.94Z"/><path class="cls-5" d="M294.61,140.66l-1.94,1.23c2.47,3.88,4.84,7.9,7.04,11.93l2.02-1.1c-2.22-4.08-4.62-8.14-7.12-12.06Z"/><path class="cls-5" d="M277.95,118.13l-1.75,1.49c2.98,3.5,5.88,7.16,8.62,10.86l1.84-1.37c-2.76-3.74-5.69-7.44-8.71-10.98Z"/><path class="cls-5" d="M258.37,98.07l-1.53,1.71c3.44,3.07,6.81,6.3,10.02,9.59l1.65-1.61c-3.25-3.33-6.66-6.59-10.14-9.69Z"/><path class="cls-5" d="M236.25,80.85l-1.29,1.9c3.82,2.57,7.6,5.31,11.23,8.14l1.42-1.81c-3.68-2.86-7.5-5.63-11.36-8.23Z"/><path class="cls-5" d="M216.12,68.89v2.6c2.39,1.25,4.76,2.56,7.08,3.9l1.15-1.99c-2.7-1.56-5.44-3.06-8.23-4.51Z"/><path class="cls-5" d="M323.61,434.8c.37-2.24,.71-4.52,1.01-6.79l2.28,.3c-.3,2.29-.65,4.6-1.03,6.86l-2.27-.38Z"/><path class="cls-5" d="M317.2,461.78l2.2,.68c1.38-4.44,2.63-9,3.71-13.53l-2.24-.53c-1.07,4.49-2.3,8.98-3.67,13.38Z"/><path class="cls-5" d="M307.16,487.61l2.09,.98c1.98-4.21,3.84-8.54,5.52-12.88l-2.15-.84c-1.66,4.29-3.5,8.58-5.47,12.74Z"/><path class="cls-5" d="M293.64,511.85l1.93,1.25c2.54-3.9,4.98-7.94,7.25-12.01l-2.01-1.12c-2.24,4.02-4.66,8.02-7.18,11.88Z"/><path class="cls-5" d="M276.93,533.99l1.74,1.51c3.06-3.53,6.03-7.2,8.84-10.91l-1.84-1.38c-2.77,3.67-5.71,7.29-8.74,10.78Z"/><path class="cls-5" d="M257.35,553.63l1.51,1.73c3.52-3.07,6.95-6.3,10.24-9.59l-1.63-1.63c-3.25,3.25-6.66,6.45-10.13,9.49Z"/><path class="cls-5" d="M235.3,570.42l1.27,1.92c3.88-2.56,7.74-5.3,11.44-8.11l-1.39-1.84c-3.66,2.79-7.47,5.49-11.32,8.02Z"/><path class="cls-5" d="M224.61,579.65c-2.78,1.57-5.62,3.09-8.49,4.53v-2.58c2.48-1.26,4.94-2.59,7.35-3.94l1.14,1.99Z"/><path class="cls-5" d="M324.28,247.11l2.3-.04c.04,2.32,.05,4.65,0,6.94l-2.3-.04c.03-2.26,.03-4.56,0-6.86Z"/><path class="cls-13" d="M226.22,301.63h235.21c36.45,0,66,29.55,66,66v8.74h-235.21c-36.45,0-66-29.55-66-66h0v-8.74h0Z"/><path class="cls-13" d="M382.32,705.52c-.23-.38-5.64-9.41-7.52-28.17-1.72-17.21-.61-46.23,14.43-86.7,28.51-76.67-6.57-138.53-6.93-139.15l1.73-1c.09,.16,9.14,15.93,14.49,41.04,7.06,33.3,4.49,67.92-7.42,99.81-28.46,76.54-7.3,112.77-7.08,113.13l-1.71,1.04Z"/><circle class="cls-2" cx="371.17" cy="434" r="13"/><circle class="cls-13" cx="412.17" cy="482" r="13"/><circle class="cls-4" cx="384.17" cy="514" r="13"/><circle class="cls-4" cx="418.17" cy="541" r="13"/><circle class="cls-13" cx="374.17" cy="583" r="13"/><path class="cls-13" d="M390.17,706s-13-32,26-56l-26,56Z"/><path class="cls-13" d="M374.18,705.42s-5.92-34.03-51.71-33.74l51.71,33.74Z"/><circle class="cls-3" cx="322.43" cy="339" r="80"/><circle class="cls-3" cx="322.43" cy="339" r="56.34"/><circle class="cls-2" cx="322.43" cy="339" r="37.18"/><path class="cls-1" d="M329.19,330.98c0-3.73-3.02-6.76-6.76-6.76-3.73,0-6.76,3.02-6.76,6.76,0,2.03,.91,3.96,2.49,5.24l-2.49,17.43h13.52l-2.49-17.43c1.58-1.28,2.49-3.21,2.49-5.24Z"/><path class="cls-9" d="M696.11,53.3s-22.3-19.99-52.29,17.69-76.9,56.14-87.67,70.75c0,0,44.6-18.46,59.98-26.15s14.61-6.15,14.61-6.15c0,0-20.76,14.61-24.61,29.22s-.77,26.92-7.69,41.53,132.27,10,132.27,10c0,0,13.84-23.84,10-48.45s-1.54-85.36-44.6-88.44Z"/><path class="cls-6" d="M653.92,116.2s4.85,33.95-15.93,41.57-13.16,18.01-13.16,18.01l31.18,15.24,33.25-10.39,11.08-16.63s-18.01-4.16-13.16-16.63,6.24-16.63,6.24-16.63l-39.49-14.55Z"/><path class="cls-10" d="M653.92,116.2s4.85,33.95-15.93,41.57-13.16,18.01-13.16,18.01l31.18,15.24,33.25-10.39,11.08-16.63s-18.01-4.16-13.16-16.63,6.24-16.63,6.24-16.63l-39.49-14.55Z"/><path class="cls-6" d="M741.22,213.19s-4.85,63.74-3.46,66.51,0,99.07,0,99.07c0,0,9.7,51.96-2.77,54.73s-9.7-58.19-9.7-58.19l-12.47-80.36,1.39-79.67,27.02-2.08Z"/><path class="cls-10" d="M741.22,213.19s-4.85,63.74-3.46,66.51,0,99.07,0,99.07c0,0,9.7,51.96-2.77,54.73s-9.7-58.19-9.7-58.19l-12.47-80.36,1.39-79.67,27.02-2.08Z"/><path class="cls-6" d="M606.12,405.1s-22.86,86.6-22.17,128.86,9.7,101.15,9.7,101.15c0,0,1.39,25.63-.69,28.4s10.39,14.55,10.39,14.55l13.16-7.62,4.85-5.54v-4.85s-7.62-23.55-1.39-42.26,9.7-65.82,3.46-80.36l42.95-127.47-60.27-4.85Z"/><path class="cls-9" d="M604.74,666.97s-8.31-10.39-13.86-6.93-14.55,27.02-14.55,27.02c0,0-31.18,29.79-9.01,31.18s31.87-6.24,34.64-11.78,28.4-20.09,28.4-20.09c0,0-2.77-26.33-6.93-27.02s-10.39,10.39-10.39,10.39l-8.31-2.77Z"/><path class="cls-6" d="M681.64,410.64v85.91c.08,10.42,.77,20.83,2.08,31.18,2.08,15.24-11.78,128.86-11.78,128.86l1.39,20.09,17.32-1.39,2.08-17.32,24.94-76.21s8.31-46.42,4.16-63.74,21.48-128.17,21.48-128.17l-61.66,20.78Z"/><path class="cls-9" d="M667.78,671.82l5.13-1.12s3.88-8.58,8.72-6.51c3.41,1.57,6.65,3.51,9.64,5.78l2.13,3.92s4.85,10.39,11.08,17.32,13.16,22.17,2.77,23.55-24.25,2.08-28.4-1.39-1.39-9.01-5.54-10.39-7.62-5.54-6.93-6.93,1.39-24.25,1.39-24.25Z"/><circle class="cls-6" cx="681.64" cy="109.27" r="30.79"/><path class="cls-2" d="M623.44,163.31l9.15-3.19s-3.61,5.97,15.79,9.43,39.49,4.69,48.49-6.66c0,0,3.46-1.65,8.31,3.2,4.85,4.85,7.62,3.46,7.62,3.46l-3.46,18.01-6.93,33.25-9.01,24.94-25.63-5.54-27.71-20.09-10.39-27.02v-24.94l-6.24-4.85Z"/><path class="cls-2" d="M707.96,173.01l6.93-4.85s23.55,4.16,24.94,15.24l-18.01,34.64c3.67,9.64,3.43,20.33-.69,29.79-6.93,15.93-6.24,19.4-6.24,19.4l-4.85,20.78-87.98,6.93s-3.46-8.31-4.85-9.7-1.39-6.24,0-6.24,0-2.08-1.39-4.16-2.08-2.77,0-5.54-3.46-27.71-3.46-27.71v-27.02l-23.55-31.18s8.31-12.47,12.47-13.86,23.93-6.85,23.93-6.85l4.47,6.59,6.24,50.14,9.01,30.48,37.92-6.44,14.73-24.73,9.7-29.1,.69-16.63Z"/><path class="cls-2" d="M734.29,179.25l5.54,4.16s4.85,38.8,3.46,41.57-25.63,5.54-26.33,4.16,17.32-49.88,17.32-49.88Z"/><path class="cls-9" d="M619.98,159.85l6.93,45.72s-6.24,67.89-4.85,81.75l1.39,4.16s-2.77-1.39-3.46,1.39,0,11.78,0,11.78c0,0-4.16,4.16-5.54,27.02s-18.01,77.59-11.78,79.67,43.65,12.47,63.74,10.39,92.14-26.33,91.45-32.56-35.33-94.22-35.33-94.22c0,0-6.23-10.39-6.23-11.78s8.31-6.93,6.24-12.47-13.16-63.74-13.16-63.74l7.62-41.57-10.39-2.77-7.62,40.18s-29.79,14.55-60.97,1.39l-6.93-47.11-11.08,2.77Z"/><path class="cls-9" d="M653.31,87.18s51.27,35.33,65.12,19.4-24.25-29.79-24.25-29.79l-31.87-3.46-9.01,13.86Z"/><path class="cls-2" d="M573.65,463.04c11.97,8.91,28.91,6.43,37.82-5.54,8.91-11.97,6.43-28.91-5.54-37.82-11.97-8.91-28.91-6.43-37.82,5.54-5.87,7.89-7,18.34-2.94,27.3l-70.71,58.87-9.41-11.17-4.23,2.83-4.71-5.59,3.87-3.26-4.71-5.59-6.02,5.07,2.9,3.44-6.45,5.43-2.9-3.44-9.45,7.97,4.35,5.16,3.44-2.9,4.71,5.59-4.3,3.62,8.69,10.31-10.31,8.69,10.5,12.46,103.22-86.97Zm17.65-39.49c9.84,.84,17.14,9.5,16.29,19.34-.84,9.84-9.5,17.14-19.34,16.29-9.84-.84-17.14-9.5-16.29-19.34s9.5-17.14,19.34-16.29h0Z"/><path class="cls-6" d="M583.95,221.51s4.85,63.74,3.46,66.51,0,99.07,0,99.07c0,0-9.7,51.96,2.77,54.73s9.7-58.19,9.7-58.19l12.47-80.36-1.39-79.67-27.02-2.08Z"/><path class="cls-2" d="M594.34,181.32l-5.54,2.08s-10.39,43.65-7.62,43.65,36.03,4.16,36.03,2.77-6.24-35.33-6.24-35.33l-16.63-13.16Z"/></svg>